Coordinates
version=1
nRows=16
nColumns=30
inDegrees=yes

Units are S.I. units (second, meters, Newtons, ...)
Angles are in degrees.

endheader
time	floatyaw	floatroll	floatpitch	floatx	floaty	floatz	pro_sup_l	deviation_l	flexion_l	cmc_flexion_l	cmc_abduction_l	mp_flexion_l	ip_flexion_l	2mcp_flexion_l	2mcp_abduction_l	2pm_flexion_l	2md_flexion_l	3mcp_flexion_l	3mcp_abduction_l	3pm_flexion_l	3md_flexion_l	4mcp_flexion_l	4mcp_abduction_l	4pm_flexion_l	4md_flexion_l	5mcp_flexion_l	5mcp_abduction_l	5pm_flexion_l	5md_flexion_l
-0.495000	-160.147433	-5.066637	-73.570646	0.067302	-0.171697	-0.025575	102.763986	9.127176	-1.765706	12.611106	13.557776	-24.702047	-41.656534	28.464256	7.099912	44.285934	30.927118	26.039526	4.398510	44.522498	30.351369	16.128170	-4.269535	51.536352	38.024533	1.861603	-8.550975	62.845330	45.517340
-0.485000	-160.147433	-5.066637	-73.570646	0.066752	-0.171353	-0.025960	102.821806	9.290661	-1.858741	12.554930	13.594071	-24.726394	-41.669591	28.326216	7.109898	44.368053	30.980051	25.998752	4.406439	44.568613	30.343168	16.107406	-4.260212	51.602007	37.960715	1.838647	-8.597969	62.841129	45.505088
-0.475000	-160.147433	-5.066637	-73.570646	0.066167	-0.170962	-0.026361	102.895253	9.463643	-1.988433	12.451266	13.663318	-24.757921	-41.671746	28.240161	7.133002	44.471209	31.043091	26.010535	4.420925	44.657873	30.364181	16.148236	-4.253715	51.715622	37.920908	1.878650	-8.679054	62.885865	45.539574
-0.465000	-160.147433	-5.066637	-73.570646	0.065553	-0.170518	-0.026771	102.977448	9.646100	-2.149484	12.312926	13.773109	-24.778028	-41.642811	28.215860	7.158676	44.567648	31.098022	26.073049	4.438067	44.763765	30.405891	16.245516	-4.249961	51.840798	37.908844	1.974644	-8.774399	62.963819	45.614457
-0.455000	-160.147433	-5.066637	-73.570646	0.064919	-0.170027	-0.027181	103.066227	9.836359	-2.331515	12.168883	13.923157	-24.771254	-41.576482	28.243091	7.175389	44.629060	31.130441	26.168527	4.451996	44.849890	30.452843	16.375192	-4.248791	51.932107	37.920979	2.099933	-8.858427	63.047391	45.710752
-0.445000	-160.147433	-5.066637	-73.570646	0.064277	-0.169509	-0.027584	103.168113	10.029867	-2.525273	12.057883	14.108880	-24.727657	-41.484559	28.287686	7.175163	44.644759	31.139851	26.267536	4.457340	44.885999	30.488537	16.501831	-4.250234	51.955701	37.947886	2.215876	-8.909047	63.109665	45.803720
-0.435000	-160.147433	-5.066637	-73.570646	0.063630	-0.168992	-0.027973	103.296077	10.218802	-2.726698	12.016820	14.325329	-24.642489	-41.390855	28.298744	7.155972	44.631055	31.143061	26.338955	4.451569	44.859619	30.501710	16.591456	-4.254343	51.902955	37.977773	2.285348	-8.914862	63.134794	45.871622
-0.425000	-160.147433	-5.066637	-73.570646	0.062971	-0.168503	-0.028349	103.462675	10.392996	-2.935914	12.068336	14.568014	-24.515817	-41.319073	28.226336	7.121201	44.624342	31.167107	26.360026	4.436001	44.778558	30.490264	16.622306	-4.260711	51.791399	38.000806	2.285744	-8.877837	63.121745	45.902505
-0.415000	-160.147433	-5.066637	-73.570646	0.062289	-0.168060	-0.028714	103.673542	10.542354	-3.152027	12.212677	14.829816	-24.354352	-41.283295	28.042462	7.077220	44.660457	31.233978	26.321418	4.415047	44.665906	30.461518	16.588411	-4.268065	51.655136	38.012276	2.215575	-8.811520	63.081562	45.896779
-0.405000	-160.147433	-5.066637	-73.570646	0.061577	-0.167672	-0.029075	103.925668	10.660384	-3.367675	12.426918	15.097048	-24.174205	-41.286378	27.755033	7.030920	44.752738	31.345738	26.226870	4.394384	44.551946	30.429106	16.497539	-4.274377	51.531190	38.013265	2.092399	-8.736419	63.031947	45.865764
-0.395000	-160.147433	-5.066637	-73.570646	0.060838	-0.167340	-0.029435	104.211239	10.747532	-3.567366	12.671364	15.349639	-24.000459	-41.324635	27.407438	6.988528	44.883733	31.480464	26.090918	4.379366	44.466317	30.408293	16.369124	-4.277679	51.447913	38.009255	1.944772	-8.674558	62.993262	45.828340
-0.385000	-160.147433	-5.066637	-73.570646	0.060083	-0.167062	-0.029799	104.523808	10.812421	-3.730922	12.900091	15.567921	-23.860844	-41.393291	27.063149	6.955678	45.017380	31.603818	25.937763	4.374551	44.432037	30.412116	16.235131	-4.277276	51.419084	38.008541	1.803517	-8.644945	62.987069	45.807904
-0.375000	-160.147433	-5.066637	-73.570646	0.059329	-0.166834	-0.030170	104.862157	10.869569	-3.839749	13.071415	15.742830	-23.775577	-41.488680	26.782229	6.937647	45.124017	31.690337	25.800433	4.383936	44.462261	30.449931	16.140418	-4.274695	51.444390	38.021802	1.695959	-8.660651	63.034789	45.829903
-0.365000	-160.147433	-5.066637	-73.570646	0.058586	-0.166645	-0.030556	105.229179	10.933972	-3.881901	13.155275	15.882181	-23.749218	-41.606958	26.600345	6.938723	45.200941	31.740668	25.716632	4.410630	44.559588	30.527650	16.136186	-4.273656	51.514201	38.061912	1.642746	-8.727053	63.153156	45.918142
-0.355000	-160.147433	-5.066637	-73.570646	0.057861	-0.166476	-0.030966	105.627074	11.015116	-3.853133	13.137320	16.007232	-23.769714	-41.741779	26.519230	6.960682	45.274295	31.782957	25.719452	4.455248	44.716367	30.647206	16.264453	-4.278844	51.614802	38.141626	1.654706	-8.840516	63.346029	46.088277
-0.345000	-160.147433	-5.066637	-73.570646	0.057166	-0.166300	-0.031414	106.053086	11.114116	-3.754497	13.021224	16.140446	-23.815296	-41.883703	26.512141	7.001502	45.381423	31.857086	25.825993	4.513836	44.914782	30.803932	16.539975	-4.293993	51.731202	38.268369	1.729122	-8.987701	63.596688	46.340028
